<svg width="126" height="127" viewBox="0 0 126 127" fill="none" xmlns="http://www.w3.org/2000/svg">
<path fill-rule="evenodd" clip-rule="evenodd" d="M60.0397 3.53524C61.9743 2.43226 64.3564 2.43226 66.2881 3.53524C75.847 8.98665 104.612 25.3964 114.174 30.8479C116.108 31.9479 117.299 33.9861 117.299 36.1921C117.299 47.0953 117.299 79.9115 117.299 90.8143C117.299 93.0206 116.108 95.0586 114.174 96.1616C104.615 101.613 75.8499 118.023 66.2881 123.474C64.3535 124.577 61.9717 124.577 60.0397 123.474C50.4808 118.023 21.7158 101.613 12.154 96.1616C10.2223 95.0586 9.03125 93.0233 9.03125 90.8173C9.03125 79.9142 9.03125 47.0982 9.03125 36.1951C9.03125 33.9891 10.2223 31.9508 12.1569 30.8479C21.7129 25.3964 50.4837 8.98665 60.0397 3.53524Z" fill="#283593"/>
<path fill-rule="evenodd" clip-rule="evenodd" d="M9.89746 93.6251C9.13965 92.5945 9.03125 91.6159 9.03125 90.2986C9.03125 79.4593 9.03125 46.8312 9.03125 35.9892C9.03125 33.7945 10.2194 31.7681 12.1484 30.6738C21.6732 25.2541 50.3415 8.9399 59.8662 3.51759C61.7949 2.42023 64.4076 2.44338 66.3366 3.54074C75.8613 8.9604 104.433 25.1354 113.957 30.555C114.727 30.9949 115.313 31.5247 115.838 32.2226L9.89746 93.6251Z" fill="#5C6BC0"/>
<path fill-rule="evenodd" clip-rule="evenodd" d="M63.1657 22.9727C85.1813 22.9727 103.054 41.1337 103.054 63.5042C103.054 85.8747 85.1813 104.036 63.1657 104.036C41.1504 104.036 23.2773 85.8747 23.2773 63.5042C23.2773 41.1337 41.1504 22.9727 63.1657 22.9727ZM63.1657 43.2384C74.1719 43.2384 83.1097 52.3176 83.1097 63.5042C83.1097 74.6881 74.1719 83.7699 63.1657 83.7699C52.1595 83.7699 43.2217 74.6881 43.2217 63.5042C43.2217 52.3176 52.1566 43.2384 63.1657 43.2384Z" fill="white"/>
<path fill-rule="evenodd" clip-rule="evenodd" d="M115.83 32.25C117.3 33.6483 117.272 35.7557 117.272 37.4147C117.272 48.4018 117.181 79.6518 117.298 90.6386C117.309 91.7852 116.936 92.9924 116.377 93.9016L62.0039 63.5026L115.83 32.25Z" fill="#3949AB"/>
</svg>
