<svg width="126" height="127" viewBox="0 0 126 127" fill="none" xmlns="http://www.w3.org/2000/svg">
<path d="M47.7353 95.8701C47.7353 95.8701 43.21 98.5457 50.956 99.4516C60.3421 100.539 65.1357 100.382 75.4772 98.3923C75.4772 98.3923 78.1963 100.124 81.9954 101.625C58.8128 111.722 29.5267 101.04 47.7353 95.8701Z" fill="#5382A1"/>
<path d="M44.9054 82.6963C44.9054 82.6963 39.8295 86.5149 47.5818 87.3301C57.6056 88.3789 65.5229 88.4659 79.2211 85.7833C79.2211 85.7833 81.1173 87.7376 84.0971 88.8039C56.0659 97.1306 24.8458 89.4623 44.9047 82.6963" fill="#5382A1"/>
<path d="M68.7858 60.3481C74.4984 67.0341 67.2839 73.0475 67.2839 73.0475C67.2839 73.0475 81.7914 65.4384 75.1293 55.9094C68.9056 47.0254 64.1361 42.6111 89.9662 27.3906C89.9662 27.3906 49.4229 37.6776 68.7858 60.3481Z" fill="#E76F00"/>
<path d="M99.4451 105.616C99.4451 105.616 102.795 108.421 95.7589 110.592C82.3761 114.71 40.06 115.954 28.3058 110.755C24.0812 108.888 32.0053 106.296 34.4978 105.749C37.0974 105.177 38.5831 105.285 38.5831 105.285C33.8839 101.92 8.20876 111.888 25.5418 114.744C72.809 122.531 111.706 111.236 99.4448 105.616" fill="#5382A1"/>
<path d="M49.9136 69.0468C49.9136 69.0468 28.3895 74.2416 42.2915 76.1264C48.161 76.9277 59.8638 76.7465 70.7609 75.8165C79.6691 75.0535 88.6151 73.4299 88.6151 73.4299C88.6151 73.4299 85.4745 74.7992 83.201 76.3738C61.3417 82.2164 19.1184 79.4992 31.2736 73.5239C41.5549 68.4756 49.9136 69.0468 49.9136 69.0468Z" fill="#5382A1"/>
<path d="M88.527 90.9758C110.746 79.2452 100.47 67.9707 93.3001 69.4897C91.5446 69.8628 90.7594 70.1832 90.7594 70.1832C90.7594 70.1832 91.4108 69.1447 92.6589 68.6956C106.844 63.6298 117.755 83.6419 88.0781 91.5682C88.0781 91.5682 88.4242 91.2546 88.527 90.9758Z" fill="#5382A1"/>
<mask id="mask0_9_1400" style="mask-type:luminance" maskUnits="userSpaceOnUse" x="47" y="2" width="32" height="67">
<path d="M47.75 2.82422H78.3333V68.8354H47.75V2.82422Z" fill="white"/>
</mask>
<g mask="url(#mask0_9_1400)">
<path d="M75.126 2.81381C75.126 2.81381 87.4323 15.321 63.4538 34.5536C44.2285 49.9801 59.0719 58.7775 63.4469 68.8287C52.2239 58.5404 43.9879 49.482 49.5133 41.054C57.6247 28.6798 80.0908 22.6807 75.126 2.81348" fill="#E76F00"/>
</g>
<path d="M52.0951 122.768C73.4235 124.154 106.172 121.998 106.947 111.744C106.947 111.744 105.455 115.629 89.3226 118.716C71.1185 122.196 48.666 121.792 35.3516 119.559C35.3516 119.559 38.0771 121.851 52.0941 122.768" fill="#5382A1"/>
</svg>
