<svg width="126" height="127" viewBox="0 0 126 127" fill="none" xmlns="http://www.w3.org/2000/svg">
<path fill-rule="evenodd" clip-rule="evenodd" d="M61.1068 2.00945C63.0902 0.878359 65.5322 0.878359 67.513 2.00945C77.3135 7.59977 106.806 24.4273 116.609 30.0176C118.593 31.1457 119.814 33.2356 119.814 35.4981C119.814 46.6787 119.814 80.3307 119.814 91.5114C119.814 93.7736 118.593 95.8634 116.609 96.9949C106.809 102.585 77.3164 119.413 67.513 125.003C65.5293 126.134 63.0872 126.134 61.1068 125.003C51.306 119.413 21.8138 102.585 12.0104 96.9949C10.0299 95.8634 8.80859 93.7765 8.80859 91.5144C8.80859 80.3334 8.80859 46.6817 8.80859 35.5011C8.80859 33.2386 10.0299 31.1487 12.0133 30.0176C21.8109 24.4273 51.3089 7.59977 61.1068 2.00945Z" fill="#283593"/>
<path fill-rule="evenodd" clip-rule="evenodd" d="M9.69694 94.3947C8.91992 93.3377 8.80859 92.3343 8.80859 90.9836C8.80859 79.8681 8.80859 46.4092 8.80859 35.2908C8.80859 33.0405 10.027 30.9622 12.0046 29.84C21.7702 24.2825 51.1631 7.55287 60.9284 1.99232C62.9062 0.867182 65.585 0.890664 67.5625 2.01614C77.3281 7.57371 106.622 24.1608 116.387 29.7183C117.176 30.1698 117.778 30.7128 118.315 31.4285L9.69694 94.3947Z" fill="#5C6BC0"/>
<path fill-rule="evenodd" clip-rule="evenodd" d="M64.3145 21.9424C86.8864 21.9424 105.211 40.5661 105.211 63.5064C105.211 86.4465 86.8864 105.07 64.3145 105.07C41.7425 105.07 23.418 86.4465 23.418 63.5064C23.418 40.5661 41.7425 21.9424 64.3145 21.9424ZM64.3145 42.7244C75.599 42.7244 84.7627 52.0348 84.7627 63.5064C84.7627 74.9751 75.599 84.2881 64.3145 84.2881C53.0299 84.2881 43.8662 74.9751 43.8662 63.5064C43.8662 52.0348 53.027 42.7244 64.3145 42.7244Z" fill="white"/>
<path fill-rule="evenodd" clip-rule="evenodd" d="M118.312 31.457C119.819 32.8911 119.79 35.0524 119.79 36.7537C119.79 48.0203 119.697 80.0663 119.816 91.3329C119.828 92.5086 119.445 93.7466 118.873 94.6789L63.125 63.506L118.312 31.457Z" fill="#3949AB"/>
<path fill-rule="evenodd" clip-rule="evenodd" d="M84.7617 54.5996H90.6042V72.4127H84.7617V54.5996ZM105.21 54.5996H111.052V72.4127H105.21V54.5996Z" fill="white"/>
<path fill-rule="evenodd" clip-rule="evenodd" d="M78.918 60.5371H96.445V66.4747H78.918V60.5371ZM99.3662 60.5371H116.893V66.4747H99.3662V60.5371Z" fill="white"/>
</svg>
