<svg width="126" height="127" viewBox="0 0 126 127" fill="none" xmlns="http://www.w3.org/2000/svg">
<path d="M73.2956 63.4094C73.2956 63.5834 73.2913 63.7577 73.2829 63.9313C73.2744 64.1053 73.262 64.2789 73.2451 64.4522C73.2285 64.6255 73.2074 64.7985 73.1823 64.9705C73.1572 65.1428 73.1279 65.3144 73.0944 65.4851C73.0609 65.6561 73.0234 65.8257 72.9818 65.9947C72.9401 66.1637 72.8945 66.3314 72.8447 66.4981C72.7949 66.6648 72.7412 66.8298 72.6836 66.9939C72.6257 67.1579 72.5641 67.3203 72.4987 67.481C72.4329 67.6421 72.3636 67.8012 72.2904 67.9586C72.2171 68.116 72.14 68.2715 72.0592 68.4249C71.9785 68.5787 71.8942 68.7302 71.806 68.8793C71.7178 69.0288 71.6263 69.176 71.5309 69.3205C71.4359 69.4654 71.3372 69.6076 71.235 69.7475C71.1331 69.8874 71.0277 70.0247 70.9189 70.1593C70.8102 70.2939 70.6982 70.4258 70.5833 70.5548C70.4681 70.6838 70.3503 70.8098 70.2288 70.9328C70.1077 71.0562 69.9837 71.1763 69.8568 71.293C69.7298 71.4101 69.5999 71.5239 69.4678 71.6343C69.3353 71.7448 69.2002 71.8516 69.0625 71.9555C68.9248 72.0593 68.7848 72.1595 68.6423 72.2561C68.5 72.353 68.3551 72.4459 68.208 72.5356C68.0612 72.6252 67.9121 72.7108 67.7611 72.7929C67.61 72.8752 67.457 72.9533 67.3021 73.0277C67.1471 73.1024 66.9906 73.1729 66.8324 73.2394C66.6738 73.3062 66.514 73.3687 66.3529 73.4275C66.1914 73.4861 66.0286 73.5406 65.8649 73.5912C65.7008 73.6418 65.5358 73.6882 65.3695 73.7305C65.2031 73.7728 65.0361 73.8109 64.8682 73.8449C64.6999 73.879 64.5312 73.9087 64.3617 73.9342C64.1924 73.9597 64.0221 73.9812 63.8516 73.998C63.6813 74.0152 63.5104 74.0281 63.3392 74.0364C63.168 74.045 62.9967 74.0493 62.8255 74.0493C62.654 74.0493 62.4827 74.045 62.3118 74.0364C62.1406 74.0281 61.9697 74.0152 61.7992 73.998C61.6286 73.9812 61.4587 73.9597 61.2891 73.9342C61.1198 73.9087 60.9508 73.879 60.7829 73.8449C60.6149 73.8109 60.4476 73.7728 60.2816 73.7305C60.1152 73.6882 59.9502 73.6418 59.7861 73.5912C59.6221 73.5406 59.4596 73.4861 59.2982 73.4275C59.1367 73.3687 58.9769 73.3062 58.8187 73.2394C58.6605 73.1729 58.5039 73.1024 58.349 73.0277C58.194 72.9533 58.041 72.8752 57.89 72.7929C57.7389 72.7108 57.5898 72.6252 57.4427 72.5356C57.2959 72.4459 57.151 72.353 57.0085 72.2561C56.8662 72.1595 56.7259 72.0593 56.5885 71.9555C56.4508 71.8516 56.3158 71.7448 56.1833 71.6343C56.0508 71.5239 55.9212 71.4101 55.7943 71.293C55.6673 71.1763 55.5433 71.0562 55.4219 70.9328C55.3008 70.8098 55.1826 70.6838 55.0677 70.5548C54.9525 70.4258 54.8408 70.2939 54.7321 70.1593C54.6234 70.0247 54.5179 69.8874 54.4157 69.7475C54.3138 69.6076 54.2152 69.4654 54.1198 69.3205C54.0247 69.176 53.9329 69.0288 53.8451 68.8793C53.7568 68.7302 53.6725 68.5787 53.5918 68.4249C53.5107 68.2715 53.4339 68.116 53.3607 67.9586C53.2874 67.8012 53.2178 67.6421 53.1523 67.481C53.0869 67.3203 53.0251 67.1579 52.9674 66.9939C52.9095 66.8298 52.8558 66.6648 52.8063 66.4981C52.7565 66.3314 52.7106 66.1637 52.6693 65.9947C52.6276 65.8257 52.5898 65.6561 52.5566 65.4851C52.5231 65.3144 52.4938 65.1428 52.4688 64.9705C52.4437 64.7985 52.4225 64.6255 52.4059 64.4522C52.389 64.2789 52.3763 64.1053 52.3678 63.9313C52.3597 63.7577 52.3555 63.5834 52.3555 63.4094C52.3555 63.2351 52.3597 63.0612 52.3678 62.8872C52.3763 62.7132 52.389 62.5399 52.4059 62.3666C52.4225 62.1933 52.4437 62.0204 52.4688 61.848C52.4938 61.6761 52.5231 61.5044 52.5566 61.3338C52.5898 61.1628 52.6276 60.9931 52.6693 60.8241C52.7106 60.6551 52.7565 60.4874 52.8063 60.3207C52.8558 60.1541 52.9095 59.9887 52.9674 59.825C53.0251 59.6609 53.0869 59.4985 53.1523 59.3375C53.2178 59.1767 53.2874 59.0177 53.3607 58.8602C53.4339 58.7028 53.5107 58.5474 53.5918 58.3936C53.6725 58.2401 53.7568 58.0886 53.8451 57.9392C53.9329 57.79 54.0247 57.6428 54.1198 57.498C54.2152 57.3534 54.3138 57.2109 54.4157 57.071C54.5179 56.9314 54.6234 56.7942 54.7321 56.6596C54.8408 56.525 54.9525 56.393 55.0677 56.264C55.1826 56.135 55.3008 56.009 55.4219 55.8857C55.5433 55.7626 55.6673 55.6426 55.7943 55.5258C55.9212 55.4087 56.0508 55.295 56.1833 55.1845C56.3158 55.0741 56.4508 54.9669 56.5885 54.8634C56.7259 54.7595 56.8662 54.6593 57.0085 54.5624C57.151 54.4658 57.2959 54.3726 57.4427 54.2833C57.5898 54.1937 57.7389 54.108 57.89 54.0256C58.041 53.9436 58.194 53.8652 58.349 53.7908C58.5039 53.7164 58.6605 53.646 58.8187 53.5792C58.9769 53.5127 59.1367 53.4502 59.2982 53.3913C59.4596 53.3328 59.6221 53.2782 59.7861 53.2276C59.9502 53.177 60.1152 53.1307 60.2816 53.0884C60.4476 53.046 60.6149 53.0077 60.7829 52.9739C60.9508 52.9399 61.1198 52.9101 61.2891 52.8846C61.4587 52.8592 61.6286 52.8377 61.7992 52.8205C61.9697 52.8036 62.1406 52.7907 62.3118 52.7821C62.4827 52.7735 62.654 52.7695 62.8255 52.7695C62.9967 52.7695 63.168 52.7735 63.3392 52.7821C63.5104 52.7907 63.6813 52.8036 63.8516 52.8205C64.0221 52.8377 64.1924 52.8592 64.3617 52.8846C64.5312 52.9101 64.6999 52.9399 64.8682 52.9739C65.0361 53.0077 65.2031 53.046 65.3695 53.0884C65.5358 53.1307 65.7008 53.177 65.8649 53.2276C66.0286 53.2782 66.1914 53.3328 66.3529 53.3913C66.514 53.4502 66.6738 53.5127 66.8324 53.5792C66.9906 53.646 67.1471 53.7164 67.3021 53.7908C67.457 53.8652 67.61 53.9436 67.7611 54.0256C67.9121 54.1077 68.0612 54.1937 68.208 54.2833C68.3551 54.3726 68.5 54.4658 68.6423 54.5624C68.7848 54.6593 68.9248 54.7595 69.0625 54.8634C69.2002 54.9669 69.3353 55.0741 69.4678 55.1845C69.5999 55.295 69.7298 55.4087 69.8568 55.5255C69.9837 55.6426 70.1077 55.7626 70.2288 55.8857C70.3503 56.009 70.4681 56.135 70.5833 56.264C70.6982 56.393 70.8102 56.525 70.9189 56.6596C71.0277 56.7942 71.1331 56.9314 71.235 57.071C71.3372 57.2109 71.4359 57.3534 71.5309 57.498C71.6263 57.6428 71.7178 57.79 71.806 57.9395C71.8942 58.0886 71.9785 58.2401 72.0592 58.3936C72.14 58.5474 72.2171 58.7028 72.2904 58.8602C72.3636 59.0177 72.4329 59.1767 72.4987 59.3375C72.5641 59.4985 72.6257 59.6609 72.6836 59.825C72.7412 59.9887 72.7949 60.1541 72.8447 60.3207C72.8945 60.4874 72.9401 60.6551 72.9818 60.8241C73.0234 60.9931 73.0609 61.1628 73.0944 61.3338C73.1279 61.5044 73.1572 61.6761 73.1823 61.848C73.2074 62.0204 73.2285 62.1933 73.2451 62.3666C73.262 62.5399 73.2744 62.7132 73.2829 62.8872C73.2913 63.0612 73.2956 63.2351 73.2956 63.4094Z" fill="#00D8FF"/>
<mask id="mask0_9_1413" style="mask-type:luminance" maskUnits="userSpaceOnUse" x="4" y="12" width="118" height="103">
<path d="M4.19922 12.9551H121.449V114.132H4.19922V12.9551Z" fill="white"/>
</mask>
<g mask="url(#mask0_9_1413)">
<path d="M62.8258 41.7744C76.8835 41.7744 89.9427 43.8243 99.7894 47.2692C111.653 51.4198 118.947 57.7109 118.947 63.4077C118.947 69.344 111.217 76.0277 98.4769 80.3173C88.8454 83.5604 76.1706 85.2531 62.8258 85.2531C49.1445 85.2531 36.1891 83.6642 26.4486 80.2819C14.1257 76.0013 6.70312 69.2312 6.70312 63.4077C6.70312 57.7572 13.6676 51.5144 25.3646 47.37C35.2477 43.8686 48.6289 41.7744 62.8249 41.7744H62.8258Z" stroke="#00D8FF" stroke-width="7.47646"/>
</g>
<mask id="mask1_9_1413" style="mask-type:luminance" maskUnits="userSpaceOnUse" x="4" y="7" width="118" height="113">
<path d="M4.19922 7.72168H121.449V119.291H4.19922V7.72168Z" fill="white"/>
</mask>
<g mask="url(#mask1_9_1413)">
<path d="M44.295 52.6519C51.3177 40.2771 59.5889 29.8055 67.4444 22.8575C76.9092 14.4875 85.9147 11.2093 90.7715 14.0549C95.8321 17.0205 97.6673 27.1653 94.9593 40.5241C92.9141 50.6233 88.0235 62.6261 81.3568 74.3739C74.5218 86.4181 66.6953 97.0295 58.9463 103.912C49.1413 112.622 39.6618 115.774 34.6989 112.865C29.8819 110.044 28.0401 100.793 30.3506 88.4256C32.3031 77.9759 37.2028 65.1505 44.292 52.6543L44.295 52.6519Z" stroke="#00D8FF" stroke-width="7.47646"/>
<path d="M44.31 74.4051C37.2683 62.0441 32.4724 49.531 30.4708 39.1448C28.0616 26.6313 29.765 17.064 34.6166 14.2091C39.6723 11.2349 49.2374 14.685 59.2729 23.7404C66.8607 30.5868 74.6521 40.8854 81.3373 52.621C88.1918 64.6536 93.3295 76.8439 95.3279 87.1028C97.8568 100.086 95.81 110.005 90.8507 112.923C86.0385 115.754 77.2325 112.757 67.8428 104.545C59.9096 97.6078 51.4216 86.8882 44.3093 74.4028L44.31 74.4051Z" stroke="#00D8FF" stroke-width="7.47646"/>
</g>
</svg>
