<svg width="41" height="40" viewBox="0 0 41 40" fill="none" xmlns="http://www.w3.org/2000/svg">
<rect x="0.5" width="40" height="40" rx="20" fill="#F9F9F9"/>
<g clip-path="url(#clip0_9_676)">
<path d="M20.5 11C18.84 11 17.5 12.37 17.5 14.07V19.93C17.5 21.63 18.84 23 20.5 23C22.16 23 23.5 21.63 23.5 19.93V14.07C23.5 12.37 22.16 11 20.5 11ZM27 20H26C26 23.03 23.53 25.5 20.5 25.5C17.47 25.5 15 23.03 15 20H14C14 23.24 16.39 25.93 19.5 26.41V29H21.5V26.41C24.61 25.93 27 23.24 27 20Z" fill="#0F0F0F"/>
</g>
<defs>
<clipPath id="clip0_9_676">
<rect width="24" height="24" fill="white" transform="translate(8.5 8)"/>
</clipPath>
</defs>
</svg>
