<svg width="25" height="24" viewBox="0 0 25 24" fill="none" xmlns="http://www.w3.org/2000/svg">
<path fill-rule="evenodd" clip-rule="evenodd" d="M6.50156 10.8004V8.40039C6.50156 6.80909 7.1337 5.28297 8.25892 4.15775C9.38414 3.03253 10.9103 2.40039 12.5016 2.40039C14.0929 2.40039 15.619 3.03253 16.7442 4.15775C17.8694 5.28297 18.5016 6.80909 18.5016 8.40039V10.8004C19.1381 10.8004 19.7485 11.0532 20.1986 11.5033C20.6487 11.9534 20.9016 12.5639 20.9016 13.2004V19.2004C20.9016 19.8369 20.6487 20.4474 20.1986 20.8974C19.7485 21.3475 19.1381 21.6004 18.5016 21.6004H6.50156C5.86504 21.6004 5.25459 21.3475 4.80451 20.8974C4.35442 20.4474 4.10156 19.8369 4.10156 19.2004V13.2004C4.10156 12.5639 4.35442 11.9534 4.80451 11.5033C5.25459 11.0532 5.86504 10.8004 6.50156 10.8004ZM16.1016 8.40039V10.8004H8.90156V8.40039C8.90156 7.44561 9.28085 6.52994 9.95598 5.85481C10.6311 5.17968 11.5468 4.80039 12.5016 4.80039C13.4563 4.80039 14.372 5.17968 15.0471 5.85481C15.7223 6.52994 16.1016 7.44561 16.1016 8.40039Z" fill="#C5C5C7"/>
</svg>
