<svg width="25" height="24" viewBox="0 0 25 24" fill="none" xmlns="http://www.w3.org/2000/svg">
<path d="M2.90234 7.0606L12.4987 11.8582L22.0951 7.0606C22.0596 6.44914 21.7917 5.87439 21.3461 5.45408C20.9006 5.03376 20.3112 4.79969 19.6987 4.7998H5.29874C4.68625 4.79969 4.09688 5.03376 3.65136 5.45408C3.20583 5.87439 2.93787 6.44914 2.90234 7.0606Z" fill="#C5C5C7"/>
<path d="M22.0984 9.74121L12.4984 14.5412L2.89844 9.74121V16.7996C2.89844 17.4361 3.15129 18.0466 3.60138 18.4967C4.05147 18.9468 4.66192 19.1996 5.29844 19.1996H19.6984C20.335 19.1996 20.9454 18.9468 21.3955 18.4967C21.8456 18.0466 22.0984 17.4361 22.0984 16.7996V9.74121Z" fill="#C5C5C7"/>
</svg>
