<svg width="13" height="12" viewBox="0 0 13 12" fill="none" xmlns="http://www.w3.org/2000/svg">
<g clip-path="url(#clip0_9_340)">
<path d="M9.64461 2.19796C9.40754 1.95494 9.1198 1.8334 8.78121 1.8334C8.44278 1.8334 8.15502 1.95487 7.91802 2.19796C7.6811 2.44098 7.56265 2.73608 7.56265 3.08337C7.56265 3.30906 7.6175 3.51849 7.72753 3.71161C7.83754 3.90476 7.98552 4.05562 8.17185 4.16408C8.17185 4.38976 8.15395 4.58841 8.11805 4.75982C8.08199 4.93123 8.0228 5.08199 7.94032 5.21229C7.85761 5.34252 7.7721 5.45311 7.68317 5.54431C7.59422 5.6355 7.46938 5.72115 7.30859 5.80148C7.14783 5.88178 6.99855 5.94898 6.86106 6.00332C6.72358 6.05748 6.53838 6.12149 6.30564 6.1953C5.88242 6.32991 5.55664 6.45351 5.3281 6.56643V3.33066C5.5143 3.22222 5.66242 3.07138 5.77243 2.87823C5.88242 2.68509 5.93742 2.47564 5.93742 2.24995C5.93742 1.90277 5.81898 1.6076 5.58198 1.36458C5.34507 1.12159 5.05735 1 4.71877 1C4.38016 1 4.09244 1.1215 3.85544 1.36458C3.61852 1.6076 3.5 1.90277 3.5 2.24995C3.5 2.47564 3.555 2.68509 3.66499 2.87823C3.775 3.07138 3.92309 3.22222 4.10932 3.33066V8.66934C3.92309 8.77773 3.775 8.92873 3.66499 9.12181C3.555 9.31503 3.5 9.52448 3.5 9.75009C3.5 10.0973 3.61843 10.3924 3.85544 10.6354C4.09244 10.8784 4.38022 11 4.71877 11C5.05728 11 5.34507 10.8784 5.58198 10.6354C5.81892 10.3924 5.93742 10.0973 5.93742 9.75009C5.93742 9.52448 5.88242 9.31503 5.77243 9.12181C5.6624 8.92873 5.5143 8.77773 5.3281 8.66934V8.50007C5.3281 8.20064 5.4159 7.98369 5.5915 7.84917C5.76709 7.71447 6.12573 7.56043 6.66746 7.38688C7.23882 7.20021 7.66841 7.02432 7.95615 6.85934C8.90401 6.30825 9.38221 5.40977 9.39064 4.16406C9.57697 4.05562 9.72496 3.90473 9.83496 3.71159C9.94491 3.51844 10 3.30904 10 3.08335C10.0001 2.73615 9.88154 2.44105 9.64461 2.19796ZM5.15048 10.193C5.03194 10.3145 4.88807 10.3753 4.71885 10.3753C4.54953 10.3753 4.40566 10.3145 4.28716 10.193C4.16872 10.0715 4.10943 9.92388 4.10943 9.75032C4.10943 9.57663 4.16866 9.42913 4.28716 9.30755C4.40566 9.18605 4.54953 9.12526 4.71885 9.12526C4.88807 9.12526 5.03196 9.18612 5.15048 9.30755C5.26899 9.42913 5.32819 9.57663 5.32819 9.75032C5.32817 9.92388 5.26899 10.0715 5.15048 10.193ZM5.15048 2.69275C5.03194 2.81429 4.88807 2.87504 4.71885 2.87504C4.54953 2.87504 4.40566 2.81429 4.28716 2.69275C4.16872 2.57121 4.10943 2.42371 4.10943 2.25004C4.10943 2.07642 4.16866 1.92881 4.28716 1.80738C4.40566 1.68586 4.54953 1.62509 4.71885 1.62509C4.88807 1.62509 5.03196 1.68588 5.15048 1.80738C5.26899 1.92881 5.32819 2.07642 5.32819 2.25004C5.32817 2.42371 5.26899 2.57128 5.15048 2.69275ZM9.21291 3.52615C9.09445 3.64762 8.95065 3.70842 8.78137 3.70842C8.612 3.70842 8.46811 3.64762 8.34974 3.52615C8.23128 3.40468 8.17201 3.25709 8.17201 3.08344C8.17201 2.90982 8.23128 2.7623 8.34974 2.64074C8.46819 2.51917 8.612 2.45847 8.78137 2.45847C8.95065 2.45847 9.09445 2.51919 9.21291 2.64074C9.33137 2.76219 9.39064 2.90979 9.39064 3.08344C9.39064 3.25707 9.33146 3.40468 9.21291 3.52615Z" fill="white" fill-opacity="0.4"/>
</g>
<defs>
<clipPath id="clip0_9_340">
<rect width="12" height="12" fill="white" transform="translate(0.5)"/>
</clipPath>
</defs>
</svg>
