<svg width="125" height="127" viewBox="0 0 125 127" fill="none" xmlns="http://www.w3.org/2000/svg">
<mask id="mask0_9_1377" style="mask-type:luminance" maskUnits="userSpaceOnUse" x="4" y="4" width="87" height="89">
<path d="M4.00391 4.39355H90.8314V92.7092H4.00391V4.39355Z" fill="white"/>
</mask>
<g mask="url(#mask0_9_1377)">
<mask id="mask1_9_1377" style="mask-type:luminance" maskUnits="userSpaceOnUse" x="4" y="4" width="87" height="89">
<path d="M62.1019 4.37988C32.4111 4.37988 34.265 17.4622 34.265 17.4622L34.2979 31.0158H62.6286V35.0851H23.0449C23.0449 35.0851 4.04688 32.8957 4.04688 63.3343C4.04655 93.7753 20.6289 92.6958 20.6289 92.6958H30.5247V78.5691C30.5247 78.5691 29.9912 61.7197 46.8421 61.7197H74.9427C74.9427 61.7197 90.7279 61.9803 90.7279 46.2168V20.153C90.7279 20.153 93.1273 4.37988 62.1019 4.37988ZM46.4782 13.4938C49.2966 13.4938 51.5739 15.8089 51.5739 18.673C51.5739 21.5375 49.2966 23.8522 46.4782 23.8522C43.6589 23.8522 41.3809 21.5375 41.3809 18.673C41.3809 15.8089 43.6589 13.4938 46.4782 13.4938Z" fill="white"/>
</mask>
<g mask="url(#mask1_9_1377)">
<path d="M4.04688 4.39355V93.7761H93.1276V4.39355H4.04688Z" fill="url(#paint0_linear_9_1377)"/>
</g>
</g>
<mask id="mask2_9_1377" style="mask-type:luminance" maskUnits="userSpaceOnUse" x="34" y="34" width="87" height="89">
<path d="M34.25 34.2041H121V122.63H34.25V34.2041Z" fill="white"/>
</mask>
<g mask="url(#mask2_9_1377)">
<mask id="mask3_9_1377" style="mask-type:luminance" maskUnits="userSpaceOnUse" x="34" y="34" width="87" height="89">
<path d="M62.9433 122.597C92.6315 122.597 90.7767 109.512 90.7767 109.512L90.7448 95.9575H62.4121V91.8905H101.996C101.996 91.8905 120.996 94.0776 120.996 63.6409C120.996 33.2006 104.414 34.2801 104.414 34.2801H94.5182V48.4049C94.5182 48.4049 95.0494 65.2559 78.2018 65.2559H50.0983C50.0983 65.2559 34.3125 64.9953 34.3125 80.7601V106.823C34.3125 106.823 31.9153 122.597 62.9433 122.597ZM78.5634 113.481C75.7474 113.481 73.4668 111.164 73.4668 108.302C73.4668 105.436 75.7474 103.123 78.5634 103.123C81.3844 103.123 83.6605 105.436 83.6605 108.302C83.6605 111.164 81.3844 113.481 78.5634 113.481Z" fill="white"/>
</mask>
<g mask="url(#mask3_9_1377)">
<path d="M31.9141 33.2002V122.596H120.995V33.2002H31.9141Z" fill="url(#paint1_linear_9_1377)"/>
</g>
</g>
<defs>
<linearGradient id="paint0_linear_9_1377" x1="4.40867" y1="4.02215" x2="94.7851" y2="92.0751" gradientUnits="userSpaceOnUse">
<stop stop-color="#387EB8"/>
<stop offset="0.125" stop-color="#387EB8"/>
<stop offset="0.140625" stop-color="#387EB8"/>
<stop offset="0.15625" stop-color="#387DB7"/>
<stop offset="0.171875" stop-color="#387DB6"/>
<stop offset="0.1875" stop-color="#387CB5"/>
<stop offset="0.203125" stop-color="#387CB4"/>
<stop offset="0.21875" stop-color="#387BB3"/>
<stop offset="0.234375" stop-color="#387BB2"/>
<stop offset="0.25" stop-color="#387AB1"/>
<stop offset="0.265625" stop-color="#387AB1"/>
<stop offset="0.28125" stop-color="#3879B0"/>
<stop offset="0.296875" stop-color="#3879AF"/>
<stop offset="0.3125" stop-color="#3878AE"/>
<stop offset="0.328125" stop-color="#3778AD"/>
<stop offset="0.34375" stop-color="#3777AC"/>
<stop offset="0.359375" stop-color="#3777AB"/>
<stop offset="0.375" stop-color="#3776AB"/>
<stop offset="0.390625" stop-color="#3776AA"/>
<stop offset="0.40625" stop-color="#3775A9"/>
<stop offset="0.421875" stop-color="#3775A8"/>
<stop offset="0.4375" stop-color="#3774A7"/>
<stop offset="0.453125" stop-color="#3774A6"/>
<stop offset="0.46875" stop-color="#3773A5"/>
<stop offset="0.484375" stop-color="#3773A4"/>
<stop offset="0.494335" stop-color="#3772A4"/>
<stop offset="0.5" stop-color="#3772A3"/>
<stop offset="0.505665" stop-color="#3772A3"/>
<stop offset="0.515625" stop-color="#3771A2"/>
<stop offset="0.53125" stop-color="#3771A2"/>
<stop offset="0.546875" stop-color="#3771A1"/>
<stop offset="0.5625" stop-color="#3770A0"/>
<stop offset="0.578125" stop-color="#37709F"/>
<stop offset="0.59375" stop-color="#376F9E"/>
<stop offset="0.609375" stop-color="#376F9D"/>
<stop offset="0.625" stop-color="#376E9D"/>
<stop offset="0.640625" stop-color="#366E9C"/>
<stop offset="0.65625" stop-color="#366D9B"/>
<stop offset="0.671875" stop-color="#366D9A"/>
<stop offset="0.6875" stop-color="#366C99"/>
<stop offset="0.703125" stop-color="#366C98"/>
<stop offset="0.71875" stop-color="#366B97"/>
<stop offset="0.734375" stop-color="#366B97"/>
<stop offset="0.75" stop-color="#366A96"/>
<stop offset="0.765625" stop-color="#366A95"/>
<stop offset="0.78125" stop-color="#366994"/>
<stop offset="0.8125" stop-color="#366994"/>
<stop offset="0.875" stop-color="#366994"/>
<stop offset="1" stop-color="#366994"/>
</linearGradient>
<linearGradient id="paint1_linear_9_1377" x1="31.4371" y1="33.7127" x2="123.77" y2="119.613" gradientUnits="userSpaceOnUse">
<stop stop-color="#FFE052"/>
<stop offset="0.125" stop-color="#FFE052"/>
<stop offset="0.1875" stop-color="#FFE052"/>
<stop offset="0.21875" stop-color="#FFE052"/>
<stop offset="0.234375" stop-color="#FFDF51"/>
<stop offset="0.25" stop-color="#FFDF51"/>
<stop offset="0.265625" stop-color="#FFDE50"/>
<stop offset="0.28125" stop-color="#FFDD4F"/>
<stop offset="0.296875" stop-color="#FFDD4E"/>
<stop offset="0.3125" stop-color="#FFDC4E"/>
<stop offset="0.328125" stop-color="#FFDB4D"/>
<stop offset="0.34375" stop-color="#FFDB4C"/>
<stop offset="0.359375" stop-color="#FFDA4B"/>
<stop offset="0.375" stop-color="#FFD94B"/>
<stop offset="0.390625" stop-color="#FFD94A"/>
<stop offset="0.40625" stop-color="#FFD849"/>
<stop offset="0.421875" stop-color="#FFD748"/>
<stop offset="0.4375" stop-color="#FFD748"/>
<stop offset="0.453125" stop-color="#FFD647"/>
<stop offset="0.46875" stop-color="#FFD546"/>
<stop offset="0.482837" stop-color="#FFD545"/>
<stop offset="0.484375" stop-color="#FFD445"/>
<stop offset="0.5" stop-color="#FFD445"/>
<stop offset="0.515625" stop-color="#FFD444"/>
<stop offset="0.517163" stop-color="#FFD343"/>
<stop offset="0.53125" stop-color="#FFD343"/>
<stop offset="0.546875" stop-color="#FFD242"/>
<stop offset="0.5625" stop-color="#FFD242"/>
<stop offset="0.578125" stop-color="#FFD141"/>
<stop offset="0.59375" stop-color="#FFD040"/>
<stop offset="0.609375" stop-color="#FFD03F"/>
<stop offset="0.625" stop-color="#FFCF3F"/>
<stop offset="0.640625" stop-color="#FFCE3E"/>
<stop offset="0.65625" stop-color="#FFCE3D"/>
<stop offset="0.671875" stop-color="#FFCD3C"/>
<stop offset="0.6875" stop-color="#FFCC3C"/>
<stop offset="0.703125" stop-color="#FFCC3B"/>
<stop offset="0.71875" stop-color="#FFCB3A"/>
<stop offset="0.734375" stop-color="#FFCA39"/>
<stop offset="0.75" stop-color="#FFCA39"/>
<stop offset="0.765625" stop-color="#FFC938"/>
<stop offset="0.78125" stop-color="#FFC837"/>
<stop offset="0.796875" stop-color="#FFC836"/>
<stop offset="0.8125" stop-color="#FFC735"/>
<stop offset="0.828125" stop-color="#FFC635"/>
<stop offset="0.84375" stop-color="#FFC634"/>
<stop offset="0.859375" stop-color="#FFC533"/>
<stop offset="0.875" stop-color="#FFC432"/>
<stop offset="0.890625" stop-color="#FFC432"/>
<stop offset="0.90625" stop-color="#FFC331"/>
<stop offset="0.9375" stop-color="#FFC331"/>
<stop offset="1" stop-color="#FFC331"/>
</linearGradient>
</defs>
</svg>
