<svg width="14" height="14" viewBox="0 0 14 14" fill="none" xmlns="http://www.w3.org/2000/svg">
<path d="M13.517 7.782C13.6622 7.70925 13.7842 7.59755 13.8695 7.4594C13.9548 7.32126 14 7.1621 14 6.99975C14 6.83739 13.9548 6.67824 13.8695 6.54009C13.7842 6.40194 13.6622 6.29024 13.517 6.21749L1.26658 0.0924885C1.11469 0.0164892 0.943957 -0.0136626 0.775218 0.00571111C0.606479 0.0250848 0.447024 0.0931465 0.316308 0.201594C0.185592 0.310041 0.0892639 0.454185 0.0390749 0.616442C-0.0111141 0.7787 -0.0129948 0.952056 0.0336628 1.11536L1.28408 5.49037C1.33639 5.67322 1.44684 5.83406 1.59873 5.94852C1.75062 6.06299 1.93567 6.12485 2.12586 6.12474L6.12564 6.12474C6.35771 6.12474 6.58028 6.21693 6.74438 6.38103C6.90848 6.54512 7.00067 6.76768 7.00067 6.99974C7.00067 7.23181 6.90848 7.45437 6.74438 7.61846C6.58028 7.78256 6.35771 7.87475 6.12564 7.87475L2.12586 7.87475C1.93567 7.87464 1.75062 7.9365 1.59873 8.05097C1.44684 8.16543 1.33639 8.32627 1.28408 8.50912L0.0345369 12.8841C-0.0122122 13.0474 -0.0104451 13.2207 0.0396247 13.383C0.0896955 13.5453 0.185906 13.6894 0.31652 13.798C0.447135 13.9065 0.606509 13.9747 0.775207 13.9942C0.943906 14.0137 1.11464 13.9837 1.26658 13.9079L13.517 7.782Z" fill="white"/>
</svg>
