<svg width="25" height="25" viewBox="0 0 25 25" fill="none" xmlns="http://www.w3.org/2000/svg">
<g clip-path="url(#clip0_9_646)">
<path d="M19.645 11.375H15.415L16.935 6.435C17.255 5.405 16.415 4.375 15.255 4.375C14.675 4.375 14.115 4.615 13.735 5.025L7.875 11.375H3.875V21.375H7.875H8.875H18.305C19.365 21.375 20.285 20.705 20.495 19.765L21.835 13.765C22.105 12.525 21.055 11.375 19.645 11.375ZM7.875 20.375H4.875V12.375H7.875V20.375ZM20.855 13.545L19.515 19.545C19.415 20.025 18.905 20.375 18.305 20.375H8.875V11.765L14.475 5.705C14.665 5.495 14.955 5.375 15.255 5.375C15.515 5.375 15.755 5.485 15.885 5.675C15.955 5.775 16.035 5.935 15.975 6.145L14.455 11.085L14.055 12.375H15.405H19.635C20.045 12.375 20.435 12.545 20.665 12.835C20.795 12.985 20.925 13.235 20.855 13.545Z" fill="#FF8A00"/>
</g>
<defs>
<clipPath id="clip0_9_646">
<rect width="24" height="24" fill="white" transform="translate(0.875 0.375)"/>
</clipPath>
</defs>
</svg>
