<svg width="53" height="37" viewBox="0 0 53 37" fill="none" xmlns="http://www.w3.org/2000/svg">
<g clip-path="url(#clip0_9_652)">
<path d="M28.8736 10.375H27.8736H18.4436C17.3736 10.375 16.4636 11.045 16.2536 11.985L14.9136 17.985C14.6436 19.225 15.6936 20.375 17.1036 20.375H21.3336L19.8136 25.315C19.4936 26.345 20.3336 27.375 21.4936 27.375C22.0736 27.375 22.6336 27.135 23.0136 26.725L28.8736 20.375H32.8736V10.375H28.8736ZM22.2736 26.045C22.0836 26.255 21.7936 26.375 21.4936 26.375C21.2336 26.375 20.9936 26.265 20.8636 26.075C20.7936 25.975 20.7136 25.815 20.7736 25.605L22.2936 20.665L22.6936 19.375H21.3336H17.1036C16.6936 19.375 16.3036 19.205 16.0736 18.915C15.9536 18.765 15.8236 18.515 15.8936 18.195L17.2336 12.195C17.3336 11.725 17.8436 11.375 18.4436 11.375H27.8736V19.985L22.2736 26.045ZM31.8736 19.375H28.8736V11.375H31.8736V19.375Z" fill="#FF8A00"/>
</g>
<defs>
<clipPath id="clip0_9_652">
<rect width="24" height="24" fill="white" transform="translate(11.875 6.375)"/>
</clipPath>
</defs>
</svg>
